<svg width="449" height="67" viewBox="0 0 449 67" fill="none" xmlns="http://www.w3.org/2000/svg">
<g clip-path="url(#clip0_220_555)">
<path d="M26 4.84C31.92 4.84 37.0933 6.01333 41.52 8.36C45.9467 10.7067 49.36 14.0133 51.76 18.28C54.2133 22.4933 55.44 27.3733 55.44 32.92C55.44 38.4133 54.2133 43.2933 51.76 47.56C49.36 51.8267 45.92 55.1333 41.44 57.48C37.0133 59.8267 31.8667 61 26 61H4.96V4.84H26ZM25.12 49.16C30.2933 49.16 34.32 47.7467 37.2 44.92C40.08 42.0933 41.52 38.0933 41.52 32.92C41.52 27.7467 40.08 23.72 37.2 20.84C34.32 17.96 30.2933 16.52 25.12 16.52H18.64V49.16H25.12ZM76.765 15.8V27.16H95.085V37.72H76.765V50.04H97.485V61H63.085V4.84H97.485V15.8H76.765ZM126.686 61.56C122.58 61.56 118.9 60.8933 115.646 59.56C112.393 58.2267 109.78 56.2533 107.806 53.64C105.886 51.0267 104.873 47.88 104.766 44.2H119.326C119.54 46.28 120.26 47.88 121.486 49C122.713 50.0667 124.313 50.6 126.286 50.6C128.313 50.6 129.913 50.1467 131.086 49.24C132.26 48.28 132.846 46.9733 132.846 45.32C132.846 43.9333 132.366 42.7867 131.406 41.88C130.5 40.9733 129.353 40.2267 127.966 39.64C126.633 39.0533 124.713 38.3867 122.206 37.64C118.58 36.52 115.62 35.4 113.326 34.28C111.033 33.16 109.06 31.5067 107.406 29.32C105.753 27.1333 104.926 24.28 104.926 20.76C104.926 15.5333 106.82 11.4533 110.606 8.52C114.393 5.53333 119.326 4.04 125.406 4.04C131.593 4.04 136.58 5.53333 140.366 8.52C144.153 11.4533 146.18 15.56 146.446 20.84H131.646C131.54 19.0267 130.873 17.6133 129.646 16.6C128.42 15.5333 126.846 15 124.926 15C123.273 15 121.94 15.4533 120.926 16.36C119.913 17.2133 119.406 18.4667 119.406 20.12C119.406 21.9333 120.26 23.3467 121.966 24.36C123.673 25.3733 126.34 26.4667 129.966 27.64C133.593 28.8667 136.526 30.04 138.766 31.16C141.06 32.28 143.033 33.9067 144.686 36.04C146.34 38.1733 147.166 40.92 147.166 44.28C147.166 47.48 146.34 50.3867 144.686 53C143.086 55.6133 140.74 57.6933 137.646 59.24C134.553 60.7867 130.9 61.56 126.686 61.56ZM169.265 4.84V61H155.585V4.84H169.265ZM216.459 22.6C215.445 20.7333 213.979 19.32 212.059 18.36C210.192 17.3467 207.979 16.84 205.419 16.84C200.992 16.84 197.445 18.3067 194.779 21.24C192.112 24.12 190.779 27.9867 190.779 32.84C190.779 38.0133 192.165 42.0667 194.939 45C197.765 47.88 201.632 49.32 206.539 49.32C209.899 49.32 212.725 48.4667 215.019 46.76C217.365 45.0533 219.072 42.6 220.139 39.4H202.779V29.32H232.539V42.04C231.525 45.4533 229.792 48.6267 227.339 51.56C224.939 54.4933 221.872 56.8667 218.139 58.68C214.405 60.4933 210.192 61.4 205.499 61.4C199.952 61.4 194.992 60.2 190.619 57.8C186.299 55.3467 182.912 51.96 180.459 47.64C178.059 43.32 176.859 38.3867 176.859 32.84C176.859 27.2933 178.059 22.36 180.459 18.04C182.912 13.6667 186.299 10.28 190.619 7.88C194.939 5.42666 199.872 4.2 205.419 4.2C212.139 4.2 217.792 5.82666 222.379 9.08C227.019 12.3333 230.085 16.84 231.579 22.6H216.459ZM290.356 61H276.676L253.796 26.36V61H240.116V4.84H253.796L276.676 39.64V4.84H290.356V61ZM313.953 4.84V61H300.273V4.84H313.953ZM338.426 49.8H362.586V61H322.906V50.6L346.906 16.04H322.906V4.84H362.586V15.24L338.426 49.8ZM419.683 4.84L400.243 42.44V61H386.562V42.44L367.123 4.84H382.643L393.523 28.36L404.323 4.84H419.683ZM431.594 61.64C429.194 61.64 427.221 60.9467 425.674 59.56C424.181 58.12 423.434 56.36 423.434 54.28C423.434 52.1467 424.181 50.36 425.674 48.92C427.221 47.48 429.194 46.76 431.594 46.76C433.941 46.76 435.861 47.48 437.354 48.92C438.901 50.36 439.674 52.1467 439.674 54.28C439.674 56.36 438.901 58.12 437.354 59.56C435.861 60.9467 433.941 61.64 431.594 61.64Z" fill="#090909"/>
</g>
<defs>
<clipPath id="clip0_220_555">
<rect width="449" height="67" fill="white"/>
</clipPath>
</defs>
</svg>
